<?xml version="1.0" encoding="UTF-8"?>
<!DOCTYPE svg PUBLIC "-//W3C//DTD SVG 1.1//EN" "http://www.w3.org/Graphics/SVG/1.1/DTD/svg11.dtd">
<svg xmlns="http://www.w3.org/2000/svg" version="1.1" width="512px" height="512px" style="shape-rendering:geometricPrecision; text-rendering:geometricPrecision; image-rendering:optimizeQuality; fill-rule:evenodd; clip-rule:evenodd" xmlns:xlink="http://www.w3.org/1999/xlink">
<g><path style="opacity:0.993" fill="#f59489" d="M 301.5,112.5 C 297.5,117.167 293.167,121.5 288.5,125.5C 270.913,136.488 252.247,138.488 232.5,131.5C 227.505,128.174 222.505,124.841 217.5,121.5C 213.126,117.128 209.126,112.461 205.5,107.5C 205.611,106.883 205.944,106.383 206.5,106C 204.04,100.745 201.707,95.5782 199.5,90.5C 196.374,57.8807 210.04,36.0473 240.5,25C 271.852,18.868 294.352,30.0347 308,58.5C 314.425,77.6546 312.259,95.6546 301.5,112.5 Z"/></g>
<g><path style="opacity:0.99" fill="#91cbd7" d="M 129.5,116.5 C 131.493,121.315 132.993,126.315 134,131.5C 134.383,132.056 134.883,132.389 135.5,132.5C 135.95,142.275 135.284,151.941 133.5,161.5C 130.597,166.302 127.93,171.302 125.5,176.5C 122.848,180.817 119.515,184.484 115.5,187.5C 110.326,190.252 105.326,193.252 100.5,196.5C 70.7636,205.092 47.2636,196.758 30,171.5C 18.3412,145.91 21.8412,122.743 40.5,102C 60.2667,86.1377 81.9334,83.1377 105.5,93C 115.995,98.3284 123.995,106.162 129.5,116.5 Z"/></g>
<g><path style="opacity:0.972" fill="#68607c" d="M 199.5,90.5 C 201.707,95.5782 204.04,100.745 206.5,106C 205.944,106.383 205.611,106.883 205.5,107.5C 182.022,115.437 158.688,123.77 135.5,132.5C 134.883,132.389 134.383,132.056 134,131.5C 132.993,126.315 131.493,121.315 129.5,116.5C 152.981,108.009 176.314,99.3425 199.5,90.5 Z"/></g>
<g><path style="opacity:0.979" fill="#68607c" d="M 301.5,112.5 C 333.5,145.167 365.833,177.5 398.5,209.5C 393.833,213.5 389.5,217.833 385.5,222.5C 353.5,189.833 321.167,157.5 288.5,125.5C 293.167,121.5 297.5,117.167 301.5,112.5 Z"/></g>
<g><path style="opacity:0.97" fill="#675f7b" d="M 217.5,121.5 C 222.505,124.841 227.505,128.174 232.5,131.5C 219.648,151.354 206.648,171.187 193.5,191C 198.735,193.785 204.068,196.285 209.5,198.5C 206.814,203.872 204.147,209.205 201.5,214.5C 196.053,211.274 190.387,208.274 184.5,205.5C 174.369,220.932 164.369,236.432 154.5,252C 179.712,294.927 205.045,337.761 230.5,380.5C 225.871,383.821 221.204,387.154 216.5,390.5C 192.162,349.981 167.995,309.314 144,268.5C 134.647,281.883 125.814,295.55 117.5,309.5C 112.477,306.133 107.477,302.8 102.5,299.5C 112.809,283.565 123.143,267.565 133.5,251.5C 122.836,232.865 111.836,214.532 100.5,196.5C 105.326,193.252 110.326,190.252 115.5,187.5C 124.892,202.604 134.059,217.938 143,233.5C 143.893,234.711 144.726,234.711 145.5,233.5C 153.042,221.582 160.709,209.748 168.5,198C 154.423,190.295 140.09,183.128 125.5,176.5C 127.93,171.302 130.597,166.302 133.5,161.5C 148.512,168.422 163.345,175.756 178,183.5C 191.438,162.946 204.604,142.28 217.5,121.5 Z"/></g>
<g><path style="opacity:0.994" fill="#ec6470" d="M 311.5,230.5 C 311.564,236.262 310.897,241.929 309.5,247.5C 301.987,269.671 286.654,283.004 263.5,287.5C 258.167,287.5 252.833,287.5 247.5,287.5C 221.781,282.948 205.947,267.948 200,242.5C 199.02,233.048 199.52,223.715 201.5,214.5C 204.147,209.205 206.814,203.872 209.5,198.5C 225.175,178.771 245.509,171.605 270.5,177C 296.409,185.414 310.076,203.247 311.5,230.5 Z"/></g>
<g><path style="opacity:0.99" fill="#fecf86" d="M 398.5,301.5 C 394.167,297.833 390.167,293.833 386.5,289.5C 379.059,279.843 375.392,268.843 375.5,256.5C 375.312,250.714 375.978,245.047 377.5,239.5C 379.024,233.246 381.69,227.579 385.5,222.5C 389.5,217.833 393.833,213.5 398.5,209.5C 411.761,200.355 426.427,197.188 442.5,200C 466.667,205.5 481.5,220.333 487,244.5C 490.524,270.649 481.357,290.815 459.5,305C 438.427,314.65 418.094,313.483 398.5,301.5 Z"/></g>
<g><path style="opacity:0.974" fill="#675f7b" d="M 311.5,230.5 C 333.53,233.314 355.53,236.314 377.5,239.5C 375.978,245.047 375.312,250.714 375.5,256.5C 353.558,253.174 331.558,250.174 309.5,247.5C 310.897,241.929 311.564,236.262 311.5,230.5 Z"/></g>
<g><path style="opacity:1" fill="#67607b" d="M 247.5,287.5 C 252.833,287.5 258.167,287.5 263.5,287.5C 263.5,316.833 263.5,346.167 263.5,375.5C 258.167,375.5 252.833,375.5 247.5,375.5C 247.5,346.167 247.5,316.833 247.5,287.5 Z"/></g>
<g><path style="opacity:0.968" fill="#675f7b" d="M 386.5,289.5 C 390.167,293.833 394.167,297.833 398.5,301.5C 366.824,334.875 335.158,368.209 303.5,401.5C 299.606,397.392 295.939,393.059 292.5,388.5C 323.833,355.5 355.167,322.5 386.5,289.5 Z"/></g>
<g><path style="opacity:0.989" fill="#4e9bb8" d="M 102.5,299.5 C 107.477,302.8 112.477,306.133 117.5,309.5C 134.348,326.213 139.681,346.213 133.5,369.5C 130.597,374.302 127.93,379.302 125.5,384.5C 111.095,403.035 92.0946,410.535 68.5,407C 46.0321,402.023 31.5321,388.523 25,366.5C 19.411,338.87 28.2444,317.37 51.5,302C 68.1622,294.334 85.1622,293.5 102.5,299.5 Z"/></g>
<g><path style="opacity:0.978" fill="#67607b" d="M 133.5,369.5 C 157.5,381.167 181.5,392.833 205.5,404.5C 203.477,410.241 201.477,415.907 199.5,421.5C 174.833,409.167 150.167,396.833 125.5,384.5C 127.93,379.302 130.597,374.302 133.5,369.5 Z"/></g>
<g><path style="opacity:0.99" fill="#91cad6" d="M 247.5,375.5 C 252.833,375.5 258.167,375.5 263.5,375.5C 274.53,376.948 284.197,381.281 292.5,388.5C 295.939,393.059 299.606,397.392 303.5,401.5C 313.19,419.68 314.023,438.347 306,457.5C 290.956,482.096 269.123,491.596 240.5,486C 210.346,475.23 196.679,453.73 199.5,421.5C 201.477,415.907 203.477,410.241 205.5,404.5C 208.435,399.235 212.101,394.568 216.5,390.5C 221.204,387.154 225.871,383.821 230.5,380.5C 235.912,378.062 241.579,376.396 247.5,375.5 Z"/></g>
</svg>
